HIERARCHY
ROOT root
{
	OFFSET	0	13.1	24.9
	CHANNELS 6  Xposition Yposition Zposition Xrotation Yrotation Zrotation
	JOINT spine_1
	{
		OFFSET	0	9.99999	0
		CHANNELS 3  Xrotation Yrotation Zrotation
		JOINT spine_2
		{
			OFFSET	0	112	-10
			CHANNELS 3  Xrotation Yrotation Zrotation
			JOINT spine_3
			{
				OFFSET	0	206.5	19.3
				CHANNELS 3  Xrotation Yrotation Zrotation
				JOINT spine_4
				{
					OFFSET	0	110.4	14.6
					CHANNELS 3  Xrotation Yrotation Zrotation
					JOINT neck_1
					{
						OFFSET	0	71.8	-50.3
						CHANNELS 3  Xrotation Yrotation Zrotation
						JOINT neck_2
						{
							OFFSET	0	86.2	-25.8
							CHANNELS 3  Xrotation Yrotation Zrotation
							JOINT head_ee
							{
								OFFSET	0	179.8	-8.7
								CHANNELS 3  Xrotation Yrotation Zrotation
								End Site
								{
									OFFSET	1	0	0
								}
							}
						}
					}
					JOINT left_clavicle
					{
						OFFSET	-43.2	22.4	-70.8
						CHANNELS 3  Xrotation Yrotation Zrotation
						JOINT left_shoulder
						{
							OFFSET	-93.9	-5.79999	48.7
							CHANNELS 3  Xrotation Yrotation Zrotation
							JOINT left_elbow
							{
								OFFSET	-291.4	-30.8	15.2
								CHANNELS 3  Xrotation Yrotation Zrotation
								JOINT left_lowarm_twist
								{
									OFFSET	-110.7	-3.89999	13.6
									CHANNELS 3  Xrotation Yrotation Zrotation
									JOINT left_hand
									{
										OFFSET	-110.7	-3.89999	13.6
										CHANNELS 3  Xrotation Yrotation Zrotation
										JOINT left_ee
										{
											OFFSET	-80.8	-5.10001	12.1
											CHANNELS 3  Xrotation Yrotation Zrotation
											End Site
											{
												OFFSET	1	0	0
											}
										}
									}
								}
							}
						}
					}
					JOINT right_clavicle
					{
						OFFSET	43.2	22.4	-70.8
						CHANNELS 3  Xrotation Yrotation Zrotation
						JOINT right_shoulder
						{
							OFFSET	93.9	-5.79999	48.7
							CHANNELS 3  Xrotation Yrotation Zrotation
							JOINT right_elbow
							{
								OFFSET	291.4	-30.8	15.2
								CHANNELS 3  Xrotation Yrotation Zrotation
								JOINT right_lowarm_twist
								{
									OFFSET	110.7	-3.89999	13.6
									CHANNELS 3  Xrotation Yrotation Zrotation
									JOINT right_hand
									{
										OFFSET	110.7	-3.89999	13.6
										CHANNELS 3  Xrotation Yrotation Zrotation
										JOINT right_ee
										{
											OFFSET	80.8	-5.10001	12.1
											CHANNELS 3  Xrotation Yrotation Zrotation
											End Site
											{
												OFFSET	1	0	0
											}
										}
									}
								}
							}
						}
					}
				}
			}
		}
	}
	JOINT left_hip
	{
		OFFSET	-82.8	-127.5	0.300001
		CHANNELS 3  Xrotation Yrotation Zrotation
		JOINT left_knee
		{
			OFFSET	-28.2	-396.7	2.2
			CHANNELS 3  Xrotation Yrotation Zrotation
			JOINT left_ankle
			{
				OFFSET	-11.7	-411.3	35.4
				CHANNELS 3  Xrotation Yrotation Zrotation
				JOINT left_toes
				{
					OFFSET	0	-60	-88.6
					CHANNELS 3  Xrotation Yrotation Zrotation
					JOINT left_foot_ee
					{
						OFFSET	-22.5	-16.5	-42.2
						CHANNELS 3  Xrotation Yrotation Zrotation
						End Site
						{
							OFFSET	1	0	0
						}
					}
				}
			}
		}
	}
	JOINT right_hip
	{
		OFFSET	82.8	-127.5	0.300001
		CHANNELS 3  Xrotation Yrotation Zrotation
		JOINT right_knee
		{
			OFFSET	28.2	-396.7	2.2
			CHANNELS 3  Xrotation Yrotation Zrotation
			JOINT right_ankle
			{
				OFFSET	11.7	-411.3	35.4
				CHANNELS 3  Xrotation Yrotation Zrotation
				JOINT right_toes
				{
					OFFSET	0	-60	-88.6
					CHANNELS 3  Xrotation Yrotation Zrotation
					JOINT right_foot_ee
					{
						OFFSET	22.5	-16.5	-42.2
						CHANNELS 3  Xrotation Yrotation Zrotation
						End Site
						{
							OFFSET	1	0	0
						}
					}
				}
			}
		}
	}
}
MOTION
Frames: 5
Frame Time: 0.02
3568.52 631.713 -550.271 -25.9494 42.841 17.6839 6.28893 0.0783133 0.589843 6.28913 0.040622 0.59363 6.28931 -0.0200261 0.594681 6.28883 0.0741423 0.590381 -9.95567 8.97166 -3.24064 -10.0342 19.0708 -0.905993 -0.0 0.0 -0.0 -3.29052 21.846 -2.12941 -6.80575 -16.4195 78.003 0.376031 -10.552 0.0347247 17.9786 0.279339 -2.27022 2.32188 -15.9166 8.81398 -0.0 0.0 -0.0 12.977 25.8727 -25.639 63.5443 -67.4994 -13.2098 0.202148 5.71858 -0.0100964 67.4274 2.47788 7.74867 -1.64241 13.9918 17.2325 0.0 0.0 0.0 26.9964 20.5268 -1.76944 -57.7942 -1.96657 8.27797 33.1437 24.2923 -4.44285 24.556 -0.0 -0.0 -0.0 0.0 -0.0 37.0926 7.09199 -4.59601 -18.4813 -0.310621 -2.80682 38.8925 4.09911 4.82219 -15.7534 0.0 0.0 0.0 0.0 0.0 
3555.24 629.375 -549.049 -27.1571 42.3248 18.2583 6.53429 0.129869 0.482778 6.53441 0.0988862 0.490063 6.53509 0.0506159 0.497371 6.53477 0.12853 0.483136 -10.344 9.64578 -2.86997 -10.4621 20.0998 -0.296635 -0.0 0.0 -0.0 -3.87118 23.1022 -2.67724 -5.6735 -9.5871 79.569 0.222359 -6.28596 0.0122098 18.6939 0.27562 -2.3615 2.79992 -24.9959 7.59675 -0.0 0.0 -0.0 12.6225 26.7495 -24.7182 62.0432 -66.3408 -19.4164 0.199595 5.64682 -0.00984362 66.622 2.39759 7.68364 -0.584288 23.2481 13.7639 0.0 0.0 0.0 31.7137 17.929 -1.49817 -58.976 -2.09043 8.41166 30.875 25.8452 -4.22945 32.2889 -0.0 -0.0 -0.0 0.0 -0.0 36.3535 4.29227 -2.83693 -17.1005 -0.318888 -2.59514 38.7069 12.0108 4.96261 -11.5315 0.0 0.0 0.0 0.0 0.0 
3529.99 636.504 -558.411 -26.8745 42.76 17.2618 6.50565 0.168826 0.672152 6.50589 0.125714 0.681532 6.50706 0.0583054 0.690572 6.50644 0.166634 0.672698 -10.6982 9.77071 -1.75835 -10.8422 19.6097 0.880669 -0.0 0.0 -0.0 -3.56 23.1677 -2.23016 -7.14469 -9.87075 78.8864 0.197666 -5.5926 0.0096547 17.8388 0.279933 -2.25236 2.09935 -19.8403 5.49276 -0.0 0.0 -0.0 12.43 23.4375 -24.6358 61.8757 -64.6973 -20.2177 0.198355 5.61195 -0.00972192 70.6061 2.80351 7.99419 -0.578884 24.0365 14.0463 0.0 0.0 0.0 34.5402 12.2072 -0.434676 -59.0064 -2.09366 8.41507 32.6846 26.3616 -4.44862 29.9366 -0.0 -0.0 -0.0 0.0 -0.0 34.6046 -0.014743 -0.282502 -17.8005 -0.315334 -2.70248 37.5642 17.9301 5.04519 -6.41249 0.0 0.0 0.0 0.0 0.0 
3511.56 643.648 -563.394 -27.9628 43.5038 18.0427 6.72308 0.150459 0.657587 6.72332 0.108311 0.665828 6.72425 0.0450759 0.673072 6.72365 0.150807 0.657507 -11.5709 7.57205 -1.14202 -11.6782 15.0793 0.997544 -0.0 0.0 -0.0 -2.40666 23.3135 -0.607107 -11.5085 -13.7285 77.3692 0.199402 -5.64139 0.00982457 16.9505 0.282688 -2.13895 1.64012 -18.3643 3.11875 -0.0 0.0 -0.0 12.7446 24.8576 -25.2162 60.7505 -63.0434 -21.5185 0.185269 5.24386 -0.00848413 73.5449 3.11627 8.20485 -0.619268 23.9634 14.2872 0.0 0.0 0.0 38.2356 16.0235 -2.93798 -59.4176 -2.13742 8.46097 27.6387 27.0672 -3.87901 31.8657 -0.0 -0.0 -0.0 0.0 -0.0 33.4459 -3.65028 1.39363 -16.2354 -0.321467 -2.46243 35.8331 22.5074 5.06628 -0.809337 0.0 0.0 0.0 0.0 0.0 
3493.59 640.297 -569.641 -27.8748 44.0337 17.8066 6.89768 0.2523 0.824517 6.89804 0.199324 0.838899 6.90043 0.122008 0.853577 6.8995 0.255279 0.823599 -12.2002 6.30294 -0.688416 -12.2841 12.3998 1.1448 -0.0 0.0 -0.0 -3.06153 23.2644 -1.51968 -15.6077 -18.0468 77.1211 0.252194 -7.12121 0.0156927 17.3283 0.281731 -2.18718 2.33825 -19.9332 7.03747 -0.0 0.0 -0.0 12.995 26.6541 -25.5871 63.7912 -62.6666 -22.3179 0.187466 5.30569 -0.00868604 77.7625 3.58308 8.47864 -1.50934 19.565 18.6011 0.0 0.0 0.0 40.3845 11.2918 -1.064 -59.7481 -2.17284 8.49763 26.1005 27.6202 -3.70369 31.8172 -0.0 -0.0 -0.0 0.0 -0.0 33.2082 -11.3505 3.67574 -17.8204 -0.315214 -2.70552 37.2745 27.8492 5.50198 1.62955 -0.0 -0.0 0.0 0.0 0.0 
